<svg width="53" height="45" viewBox="0 0 53 45" fill="none" xmlns="http://www.w3.org/2000/svg">
<path d="M38.75 9H13.25C12.1232 9.00122 11.0429 9.45417 10.2461 10.2595C9.44936 11.0647 9.00121 12.1566 9 13.2955V31.7045C9.00121 32.8434 9.44936 33.9353 10.2461 34.7405C11.0429 35.5458 12.1232 35.9988 13.25 36H38.75C39.8768 35.9988 40.9571 35.5458 41.7539 34.7405C42.5506 33.9353 42.9988 32.8434 43 31.7045V13.2955C42.9988 12.1566 42.5506 11.0647 41.7539 10.2595C40.9571 9.45417 39.8768 9.00122 38.75 9V9ZM37.6738 16.1051L26.7453 24.6961C26.5322 24.8635 26.2699 24.9544 26 24.9544C25.7301 24.9544 25.4678 24.8635 25.2547 24.6961L14.3262 16.1051C14.1978 16.0071 14.0899 15.8843 14.0089 15.7438C13.9278 15.6033 13.8753 15.448 13.8541 15.2868C13.833 15.1255 13.8438 14.9617 13.8859 14.8047C13.928 14.6478 14.0006 14.5008 14.0993 14.3724C14.1981 14.2441 14.3211 14.1368 14.4612 14.0569C14.6014 13.977 14.7558 13.926 14.9156 13.9069C15.0754 13.8879 15.2373 13.9011 15.392 13.9459C15.5467 13.9906 15.6911 14.066 15.8167 14.1676L26 22.1725L36.1833 14.1676C36.4379 13.9732 36.758 13.888 37.0744 13.9303C37.3907 13.9726 37.6778 14.1391 37.8737 14.3937C38.0696 14.6483 38.1584 14.9705 38.121 15.2908C38.0836 15.6111 37.923 15.9036 37.6738 16.1051Z" fill="#FF91A5"/>
</svg>
